PathFileType	4	(X/Y/Z)	/Users/niels/Desktop/University/Third Semester/Perception and Action/Exam/Gymnastics Motion Tracking/Code for Gym Tracking/Analyzed Data/Webcam_Backflip/id4_2_baseline_Sports2D/id4_2_baseline_Sports2D_px_person00.trc
DataRate	CameraRate	NumFrames	NumMarkers	Units	OrigDataRate	OrigDataStartFrame	OrigNumFrames
29.81132075471698	29.81132075471698	11	22	m	29.81132075471698	119	159
Frame#	Time	Hip			RHip			RKnee			RAnkle			RBigToe			RSmallToe			RHeel			LHip			LKnee			LAnkle			LBigToe			LSmallToe			LHeel			Neck			Head			Nose			RShoulder			RElbow			RWrist			LShoulder			LElbow			LWrist		
		X1	Y1	Z1	X2	Y2	Z2	X3	Y3	Z3	X4	Y4	Z4	X5	Y5	Z5	X6	Y6	Z6	X7	Y7	Z7	X8	Y8	Z8	X9	Y9	Z9	X10	Y10	Z10	X11	Y11	Z11	X12	Y12	Z12	X13	Y13	Z13	X14	Y14	Z14	X15	Y15	Z15	X16	Y16	Z16	X17	Y17	Z17	X18	Y18	Z18	X19	Y19	Z19	X20	Y20	Z20	X21	Y21	Z21	X22	Y22	Z22
119	3.991772151898734	0.9449980845428513	-0.580659368954062	0.0	0.9447697390230132	-0.5783150825858127	0.0	0.9417823354853289	-0.6889124858438231	0.0	0.9274753298055834	-0.7946524221341765	0.0	0.9578084360576045	-0.8146183154442674	0.0	0.9525639840113451	-0.8170663676415373	0.0	0.921686222366731	-0.811369875836979	0.0	0.945390929573396	-0.5762386847538348	0.0	0.9414229951947223	-0.6869888711610984	0.0	0.9275731213020972	-0.791158874912409	0.0	0.959982573993632	-0.8134793824065655	0.0	0.9546717141897881	-0.8077833691014727	0.0	0.9185308964555129	-0.8024424279484904	0.0	0.9396222685063964	-0.42651615263001097	0.0	0.9601560916989147	-0.3519041573905066	0.0	0.9644678947248813	-0.38990281134854354	0.0	0.9373014554213078	-0.43220453440288237	0.0	0.9803671307914084	-0.3708020517223292	0.0	1.0047906128217499	-0.30630710268281763	0.0	0.933871735019664	-0.4318147664971659	0.0	0.971255377000106	-0.37804007984186916	0.0	0.9966350014549663	-0.3176168867656698	0.0
120	4.025316455696203	0.944681036320234	-0.5829229865472251	0.0	0.9443012868683803	-0.5807623074580484	0.0	0.9417972551728443	-0.6902725477564815	0.0	0.9271107410194306	-0.7961019592400664	0.0	0.9570869890474557	-0.8153454801360929	0.0	0.9516855345913192	-0.8176149370533131	0.0	0.9213012856592805	-0.8125900964119647	0.0	0.9449796874757876	-0.5788171430378376	0.0	0.9414359511436939	-0.688524969033241	0.0	0.9272608110505982	-0.7923478949443352	0.0	0.959137875411845	-0.8145425203544833	0.0	0.9542424993326012	-0.808589922869473	0.0	0.9181828793581228	-0.8033628779189917	0.0	0.9388398497119832	-0.42920455228416504	0.0	0.9591739239580418	-0.3547320180584736	0.0	0.9636867347158495	-0.39239837103919584	0.0	0.9366329246604355	-0.4352709060830083	0.0	0.979090818390052	-0.37391330236106524	0.0	1.003554333713828	-0.30971627765789006	0.0	0.9333194239245368	-0.4346410079786144	0.0	0.970453628258435	-0.3807738922367706	0.0	0.9963189816476421	-0.32094666107454994	0.0
121	4.058860759493671	0.9444166346853773	-0.5843349246266853	0.0	0.9438546627179565	-0.5823122816974977	0.0	0.9421156855571536	-0.6908616418609059	0.0	0.927073202936842	-0.7966087875319454	0.0	0.9568469023013788	-0.8154464112818176	0.0	0.9512747227226966	-0.8176128662075279	0.0	0.921129124263778	-0.8129713537131252	0.0	0.9445777923530354	-0.5804447118733997	0.0	0.9418323453204626	-0.6893982334326727	0.0	0.9272506133365984	-0.7927018396687779	0.0	0.9587179146842821	-0.8149353754908817	0.0	0.9541645032551721	-0.8088014659697363	0.0	0.9181166412141891	-0.8034817915460204	0.0	0.9379973058365744	-0.4306115920193171	0.0	0.9583744816559268	-0.356283104508944	0.0	0.962954976580486	-0.3936603114356908	0.0	0.9359084847694205	-0.4370525709288716	0.0	0.9780300125199807	-0.3758143083113967	0.0	1.0029756243207526	-0.3118833852130352	0.0	0.9327195903614318	-0.4361939728713618	0.0	0.9699930024250464	-0.3822777638501521	0.0	0.9967014455284942	-0.3228628092853981	0.0
122	4.092405063291139	0.9442455292802727	-0.5847928115529691	0.0	0.9436163517849883	-0.5828366653881156	0.0	0.9426430613045955	-0.6906941533451229	0.0	0.9273465678797664	-0.7963455091710451	0.0	0.9572477765795039	-0.8150723678682315	0.0	0.9515857441330086	-0.8172620365386	0.0	0.9211456391781679	-0.8127174269100101	0.0	0.944234240315393	-0.5809978472758685	0.0	0.9424550927726952	-0.6896004288221941	0.0	0.9274987748228902	-0.7923659806550348	0.0	0.9589242595512746	-0.8147500482650638	0.0	0.9545597205063595	-0.8084827278397847	0.0	0.9182860974291291	-0.8030415672187201	0.0	0.9371271836968559	-0.43060502755821084	0.0	0.9577250660270573	-0.35633947926634885	0.0	0.9622722627727227	-0.39354164077249254	0.0	0.9351269234824376	-0.4372794067906367	0.0	0.9772985189676087	-0.3763080932561406	0.0	1.0031103438193256	-0.3125977393637499	0.0	0.9320105017753584	-0.43631157781965835	0.0	0.9697699026708266	-0.3824426008602049	0.0	0.9975794730689123	-0.323189646320365	0.0
123	4.125949367088608	0.9442121784622827	-0.5841779560988065	0.0	0.9436748651068285	-0.5822136199386881	0.0	0.9432799009985064	-0.6897388737376908	0.0	0.9278320615908681	-0.7952896235706387	0.0	0.9580844318628484	-0.8141057741908893	0.0	0.9524844419558964	-0.8164424891148414	0.0	0.9212825775586637	-0.8117675463850106	0.0	0.9439979508146955	-0.5803529767278914	0.0	0.9431691736453188	-0.689009281336789	0.0	0.9279375950864416	-0.7912920324119177	0.0	0.9595840064738357	-0.8138236990224996	0.0	0.9552264794381279	-0.8074789928580015	0.0	0.9186177627708544	-0.8020073755794431	0.0	0.9362821077626279	-0.4291844563565657	0.0	0.9572183753216884	-0.3548751241096878	0.0	0.9616726390108078	-0.3920559917352937	0.0	0.9343378952350123	-0.43590100899623474	0.0	0.9769552926101343	-0.37536082855017733	0.0	1.0038847151055592	-0.31186443705426914	0.0	0.9311737792844402	-0.4349801408584	0.0	0.9696896904177109	-0.38128248519436553	0.0	0.9987247440813535	-0.3220417656835043	0.0
124	4.159493670886076	0.9443275970288914	-0.5825063888882003	0.0	0.9439701618996154	-0.5804680856459714	0.0	0.94392367936748	-0.6880072399691247	0.0	0.9284003813677381	-0.7932903112081879	0.0	0.9588573864074212	-0.8122905662538491	0.0	0.9535089735106305	-0.8148382008911216	0.0	0.9215030038946798	-0.8098803431189295	0.0	0.9438890795651764	-0.5785225451026972	0.0	0.9438712739361343	-0.6875051666542472	0.0	0.9284652284002337	-0.7893213830588008	0.0	0.960187397387578	-0.8119036042791304	0.0	0.955711659111773	-0.8056061892919361	0.0	0.9190607197416187	-0.8001636539866538	0.0	0.9354948722288174	-0.42654584597181344	0.0	0.9568339140131146	-0.35213822862479593	0.0	0.9611443115319296	-0.38941008420901724	0.0	0.9335873424075002	-0.4331549925796473	0.0	0.976967617266105	-0.37312193659418436	0.0	1.005078745039631	-0.3098835211259159	0.0	0.9302803915256228	-0.4323975778835142	0.0	0.9697479302631541	-0.37894250780896005	0.0	0.9999429905842099	-0.3197092044182921	0.0
125	4.193037974683544	0.9445274012217115	-0.5800105451450723	0.0	0.9443478623550564	-0.5778539617253996	0.0	0.9444674578414474	-0.6856405824946437	0.0	0.9289180881922747	-0.7903027173098685	0.0	0.9590908940594113	-0.8095253818812786	0.0	0.9541731020440627	-0.8122310832681126	0.0	0.9217953618429741	-0.8069436850627146	0.0	0.9438920486006652	-0.5757419842672877	0.0	0.944474863025145	-0.6851331327398967	0.0	0.9289565524461717	-0.7864229278276839	0.0	0.9601956997166387	-0.8089542883100366	0.0	0.9556120556978397	-0.8028799572610055	0.0	0.9195687427701271	-0.7974357293570687	0.0	0.9347706927783771	-0.4230638402939174	0.0	0.9565407998331794	-0.34854550597904593	0.0	0.9606059341614693	-0.38595106763097303	0.0	0.9328985413816911	-0.4294964490455601	0.0	0.9772090691388533	-0.3698865880557253	0.0	1.006379803087333	-0.3070283860803854	0.0	0.9294776632011424	-0.4289403013839437	0.0	0.970000241889081	-0.37567833782619375	0.0	1.0010808235736297	-0.3165319746070292	0.0
126	4.226582278481012	0.9446905943981468	-0.5770248628732321	0.0	0.9446390150532744	-0.5747504128642894	0.0	0.9448140088221108	-0.6828811979008946	0.0	0.9292738238030589	-0.7865106708710479	0.0	0.9585514360781336	-0.8059844865662475	0.0	0.9541610846236865	-0.8086804988138094	0.0	0.9221213282129443	-0.80310844276366	0.0	0.9439884125812779	-0.5723821769431532	0.0	0.9449122324300075	-0.682127106403856	0.0	0.9292958276388992	-0.7828086323862082	0.0	0.9593168544527105	-0.8052699650086044	0.0	0.9547729871662114	-0.799528615980696	0.0	0.9200751971839934	-0.7940103918101646	0.0	0.934129796966177	-0.4191722076191475	0.0	0.956319812005822	-0.3445380582601249	0.0	0.9600019945555445	-0.38208466918284445	0.0	0.9323061867460201	-0.42544939202177884	0.0	0.9775095039311658	-0.36604912120022415	0.0	1.007480415590789	-0.30375324019964345	0.0	0.9289307813046891	-0.4250349598965879	0.0	0.9704804182342593	-0.37183228514178107	0.0	1.0019979399676788	-0.31283236250858504	0.0
127	4.260126582278481	0.94471678274861	-0.5738520127825067	0.0	0.9447313391626624	-0.571523560616319	0.0	0.9449114429087169	-0.6799919984294511	0.0	0.9294191362332794	-0.7822803485397515	0.0	0.957287135812985	-0.8020552370315854	0.0	0.9533830400895211	-0.8045491641308358	0.0	0.9224048085138896	-0.7987153884720224	0.0	0.9441748551168049	-0.568841151202102	0.0	0.9451569715228961	-0.6788310272677108	0.0	0.9294225619957115	-0.7788688332342973	0.0	0.9575899730251546	-0.8013490074876145	0.0	0.9532734417016575	-0.7958973746602026	0.0	0.9205100528752757	-0.7902224095420683	0.0	0.9336224527113808	-0.4152826325587321	0.0	0.9561702787440297	-0.3405373140542759	0.0	0.9593989058000523	-0.37823313383045387	0.0	0.9318638238338598	-0.42148520931767497	0.0	0.9777306338092482	-0.36204318669082325	0.0	1.008171160413226	-0.3004371591118164	0.0	0.9287538416494805	-0.42107373860790764	0.0	0.9711709704938214	-0.3677833584660433	0.0	1.0025890105095892	-0.3088702905597305	0.0
128	4.293670886075949	0.9445859344292988	-0.5707651204936676	0.0	0.9446074643165321	-0.5684798966406438	0.0	0.9447763530577455	-0.6772368815035655	0.0	0.9293906698078208	-0.7780942300209425	0.0	0.9555638342492644	-0.7982676946217796	0.0	0.9519791856580233	-0.8004362815841244	0.0	0.9225621780553006	-0.7942594152588154	0.0	0.9444197068794575	-0.5655189045115265	0.0	0.9452288477997605	-0.6756303570881563	0.0	0.9293576658759904	-0.7750729559288859	0.0	0.9553397187800272	-0.7977326005678338	0.0	0.9513704119740002	-0.7924120313559648	0.0	0.9208190927292467	-0.7864686818967788	0.0	0.9333052087241921	-0.41179826159746274	0.0	0.956078856866497	-0.33694027655328007	0.0	0.9589514888756698	-0.3748027794726668	0.0	0.9316113603149218	-0.4179941116371273	0.0	0.9778028649076856	-0.35826193983550564	0.0	1.0083896089828277	-0.29729900629274275	0.0	0.9289641223276055	-0.41743167885746163	0.0	0.9719979766360537	-0.36387342694696945	0.0	1.0028349554981812	-0.3048431213014945	0.0
129	4.327215189873417	0.9443474217191431	-0.5680480217510538	0.0	0.9443220740952056	-0.5658705329516543	0.0	0.9444670618907974	-0.6748842259724235	0.0	0.9292744919835884	-0.7745079287547973	0.0	0.9537371188700666	-0.7951933543381973	0.0	0.950265956412582	-0.7969994258474145	0.0	0.9225381006742528	-0.7903517917236391	0.0	0.9446243472118268	-0.562784370554924	0.0	0.9451407949210675	-0.6728892587068419	0.0	0.9291724427827032	-0.771897915676722	0.0	0.9530609725348134	-0.7949006228417633	0.0	0.949455981650048	-0.7895405224233478	0.0	0.9209706023966302	-0.7831791716961753	0.0	0.9332117816703331	-0.4091123558923762	0.0	0.9559739647879114	-0.3341020751664396	0.0	0.9587737562005881	-0.3721359809051095	0.0	0.9315574556133274	-0.41529764016674264	0.0	0.9777029180647202	-0.3550187774071656	0.0	1.0081757481710751	-0.2944691670616542	0.0	0.9294832550096561	-0.4144799607383047	0.0	0.9728115486804078	-0.360400911119814	0.0	1.0027726074452474	-0.30098780138888287	0.0
